<?xml version="1.0" encoding="utf-8"?>
<!-- Generator: Adobe Illustrator 19.2.1, SVG Export Plug-In . SVG Version: 6.00 Build 0)  -->
<svg version="1.1" id="Laag_1" xmlns="http://www.w3.org/2000/svg" xmlns:xlink="http://www.w3.org/1999/xlink" x="0px" y="0px"
	 viewBox="0 0 34.2 32.8" style="enable-background:new 0 0 34.2 32.8;" xml:space="preserve">
<g id="g16">
	<path id="path22" d="M33.8,6.3c-1.2,0.6-2.6,0.9-4,1.1c1.4-0.9,2.5-2.2,3-3.8c-1.3,0.8-2.8,1.4-4.4,1.7C27.2,3.8,25.4,3,23.4,3
		c-3.8,0-6.9,3.1-6.9,6.9c0,0.5,0.1,1.1,0.2,1.6c-5.8-0.3-10.9-3-14.3-7.2c-0.6,1-0.9,2.2-0.9,3.5c0,2.4,1.2,4.5,3.1,5.8
		c-1.1,0-2.2-0.3-3.1-0.9c0,0,0,0.1,0,0.1c0,3.4,2.4,6.2,5.6,6.8c-0.6,0.2-1.2,0.2-1.8,0.2c-0.4,0-0.9,0-1.3-0.1
		c0.9,2.8,3.4,4.8,6.5,4.8c-2.4,1.9-5.4,3-8.6,3c-0.6,0-1.1,0-1.7-0.1c3.1,2,6.7,3.1,10.6,3.1c12.8,0,19.7-10.6,19.7-19.7
		c0-0.3,0-0.6,0-0.9C31.7,8.9,32.9,7.6,33.8,6.3"/>
</g>
</svg>
