<?xml version="1.0" encoding="utf-8"?>
<!-- Generator: Adobe Illustrator 19.2.1, SVG Export Plug-In . SVG Version: 6.00 Build 0)  -->
<svg version="1.1" id="Laag_1" xmlns="http://www.w3.org/2000/svg" xmlns:xlink="http://www.w3.org/1999/xlink" x="0px" y="0px"
	 viewBox="0 0 1472 1321" style="enable-background:new 0 0 1472 1321;" xml:space="preserve">
<style type="text/css">
	.st0{fill:#FB6542;}
</style>
<g>
	<path class="st0" d="M681.3,16.3c-12.9-8.8-29.3-10.6-43.9-4.9c0,0,0,0-0.1,0L112,220.9c-0.4,0.2-0.8,0.3-1.2,0.5c-1,0.5-2,1-3,1.4
		L39,249.9l0,0c-0.4,0.1-0.8,0.3-1.1,0.5c-3.9,1.6-7.5,3.8-11,6.6c-2.5,2-4.8,4.2-6.9,6.9c-1.1,1.3-2.1,2.6-3.1,4.1
		c-1.6,2.5-3,5.2-4.1,8.2c-0.2,0.6-0.5,1.3-0.6,1.9c-1.5,4.7-2.3,9.7-2.3,15c0,0.8,0,1.5,0.1,2.3v289.2c-0.1,0.7-0.1,1.5-0.1,2.2
		c0,5.8,0.8,10.9,2.4,15.6c0.1,0.3,0.2,0.5,0.3,0.8c0.3,1,0.7,2,1.2,2.9c2.6,5.9,6.5,11.2,11.6,15.7c3.6,3.2,7.9,5.9,12.8,8
		c0.4,0.2,0.9,0.4,1.3,0.5c0.2,0.1,0.3,0.1,0.5,0.2l597.6,237.8c5.6,2.2,11.5,3.3,17.4,3.3c9.3,0,18.6-2.8,26.5-8.2
		c12.8-8.7,20.5-23.2,20.5-38.7V550.6c0-19.1-11.8-36.5-29.4-43.4l-169.1-67.3l168.8-67.2c17.7-7.1,29.7-24.6,29.7-43.6V55
		C701.8,39.5,694.1,25.1,681.3,16.3z M651.8,327l-216.4,86.1L120,287.8c-2.2-1-4.2-2.2-6-3.4c-1.8-1.2-3.3-2.5-4.3-3.5
		c2.5-2.6,8.6-7.6,22.3-13.9c0.7-0.3,1.4-0.7,2-1L651.8,59.5V327z"/>
	<path class="st0" d="M671.9,947.9L73.1,709.5c-14.5-5.7-30.8-3.9-43.7,4.8C16.6,723,8.9,737.5,8.9,753v274.2
		c0,19,11.9,36.5,29.6,43.5l598.8,238.4l0,0c5.6,2.2,11.5,3.3,17.3,3.3c9.3,0,18.5-2.8,26.4-8.1c12.9-8.7,20.5-23.2,20.5-38.7V991.4
		C701.5,972.4,689.6,954.9,671.9,947.9z"/>
	<path class="st0" d="M1444.5,714.2c-12.9-8.7-29.2-10.5-43.7-4.8l0,0L802,947.8c-17.7,7-29.6,24.5-29.6,43.5v274.2
		c0,15.5,7.7,30,20.5,38.7c7.9,5.4,17.1,8.1,26.4,8.1c5.9,0,11.8-1.1,17.4-3.3l598.8-238.4c17.7-7,29.6-24.5,29.6-43.5V753
		C1465,737.4,1457.3,722.9,1444.5,714.2z"/>
	<path class="st0" d="M793.3,863.4c7.9,5.4,17.1,8.1,26.4,8.1c5.8,0,11.7-1.1,17.3-3.3l598.2-238.1c0.5-0.2,1.1-0.5,1.6-0.7
		c4.5-2.1,8.6-4.6,12-7.6c5.1-4.4,9.1-9.8,11.8-15.8c0.5-1,0.9-2,1.2-3c0.1-0.3,0.2-0.6,0.3-0.9c1.4-4.2,2.2-8.4,2.5-12.8
		c0.1-1,0.2-2,0.2-3V295.1c0.1-1,0.1-2.1,0.1-3.2c-0.2-5-1-9.7-2.4-13.9c-0.2-0.7-0.4-1.4-0.7-2c-1.3-3.3-2.7-6.1-4.4-8.7
		c-0.3-0.4-0.5-0.8-0.8-1.1c-0.2-0.3-0.5-0.7-0.8-1l-0.2-0.3c-0.1-0.1-0.1-0.2-0.2-0.2c-2.3-3-4.7-5.2-6.3-6.7
		c-0.4-0.3-0.7-0.7-1.1-1c-3.7-3-7.6-5.3-11.8-7c-0.7-0.3-1.4-0.5-2.1-0.7l-71.8-28.4l0,0L837,11.6c-14.5-5.7-30.9-4-43.8,4.8
		C780.4,25,772.8,39.5,772.8,55v274.2c0,19.3,11.6,36.4,29.4,43.5l168.6,67.2l-168.6,67.2c-17.9,7.1-29.5,24.2-29.5,43.5v274.1
		C772.8,840.2,780.5,854.7,793.3,863.4z M1440.2,627.5c1.3-0.9,2.4-1.9,3.5-2.9C1442.6,625.7,1441.4,626.6,1440.2,627.5z
		 M1464.8,293.3L1464.8,293.3h-25H1464.8z M1435.6,630c-2.9,1.2-6.1,1.8-9.3,1.8C1429.4,631.8,1432.6,631.2,1435.6,630z
		 M822.8,327.1V59.7L1343.1,267c0.4,0.2,0.7,0.3,1.1,0.5s0.7,0.4,1.1,0.5c0.4,0.2,0.8,0.4,1.3,0.6c0.3,0.2,0.7,0.3,1,0.5
		c0.4,0.2,0.8,0.4,1.2,0.6c0.3,0.2,0.6,0.3,0.9,0.5c0.4,0.2,0.7,0.4,1.1,0.6c0.3,0.2,0.6,0.3,0.9,0.5s0.7,0.4,1,0.6
		c0.3,0.1,0.5,0.3,0.8,0.4c0.3,0.2,0.6,0.4,0.9,0.5c0.2,0.1,0.5,0.3,0.7,0.4c0.3,0.2,0.6,0.4,0.9,0.5c0.2,0.1,0.4,0.3,0.6,0.4
		c0.3,0.2,0.5,0.3,0.8,0.5c0.2,0.1,0.4,0.3,0.6,0.4c0.2,0.2,0.5,0.3,0.7,0.5c0.2,0.1,0.4,0.2,0.5,0.4c0.2,0.2,0.4,0.3,0.7,0.5
		c0.2,0.1,0.3,0.2,0.5,0.3c0.2,0.2,0.4,0.3,0.6,0.5c0.1,0.1,0.3,0.2,0.4,0.3c0.2,0.1,0.4,0.3,0.6,0.4c0.1,0.1,0.2,0.2,0.4,0.3
		c0.2,0.1,0.3,0.3,0.5,0.4c0.1,0.1,0.2,0.2,0.3,0.3c0.2,0.1,0.3,0.3,0.4,0.4s0.2,0.2,0.3,0.2c0.2,0.1,0.3,0.3,0.4,0.4
		c0,0,0.1,0.1,0.2,0.1c0.2,0.2,0.4,0.4,0.5,0.5c-0.4,0.3-0.8,0.7-1.2,1.1c-0.3,0.3-0.7,0.6-1,0.8c-0.5,0.4-1.1,0.9-1.7,1.3
		c-0.2,0.1-0.3,0.2-0.5,0.4c0,0-0.1,0-0.1,0.1c-1.8,1.2-3.9,2.5-6.1,3.5l-8.2,3.2L1039,413L822.8,327.1z"/>
</g>
<polygon class="st0" points="57.1,277.6 661.6,36.1 661.6,346.6 427.6,439.9 "/>
<polygon class="st0" points="801.1,342.1 807.1,36.1 1399.6,264.1 1038.1,439.9 "/>
</svg>
